<svg width="1200" height="280" viewBox="0 0 1200 280" xmlns="http://www.w3.org/2000/svg">
  <defs>
    <linearGradient id="bgl" x1="0%" y1="0%" x2="100%" y2="100%">
      <stop offset="0%" stop-color="#F4F6FF"/>
      <stop offset="55%" stop-color="#EDEFFB"/>
      <stop offset="100%" stop-color="#F0EAFB"/>
    </linearGradient>
    <linearGradient id="cyan-mag-l" x1="0%" y1="0%" x2="100%" y2="0%">
      <stop offset="0%" stop-color="#0090A8"/>
      <stop offset="50%" stop-color="#6A21D6"/>
      <stop offset="100%" stop-color="#C400A8"/>
    </linearGradient>
    <pattern id="gridl" width="34" height="34" patternUnits="userSpaceOnUse">
      <path d="M 34 0 L 0 0 0 34" fill="none" stroke="#D9DEF2" stroke-width="1"/>
    </pattern>
  </defs>

  <rect width="1200" height="280" fill="url(#bgl)"/>
  <rect width="1200" height="280" fill="url(#gridl)" opacity="0.7"/>

  <g stroke-width="1.6" fill="none" opacity="0.55">
    <path d="M0 60 H180 L210 90 H420 L450 120" stroke="#0090A8"/>
    <path d="M0 220 H140 L170 190 H360 L400 160" stroke="#C400A8"/>
    <path d="M1200 50 H1020 L990 80 H820 L790 110" stroke="#6A21D6"/>
    <path d="M1200 230 H1040 L1010 200 H860 L830 175" stroke="#0090A8"/>
    <circle cx="450" cy="120" r="4" fill="#0090A8"/>
    <circle cx="400" cy="160" r="4" fill="#C400A8"/>
    <circle cx="790" cy="110" r="4" fill="#6A21D6"/>
    <circle cx="830" cy="175" r="4" fill="#0090A8"/>
  </g>

  <text x="600" y="82" text-anchor="middle" font-family="'Courier New', monospace" font-size="15" letter-spacing="6" fill="#6A21D6">&lt; SYSTEMS_PROGRAMMER &#47; ML_ENGINEER &gt;</text>

  <text x="600" y="160" text-anchor="middle" font-family="'Courier New', monospace" font-weight="700" font-size="72" letter-spacing="10" fill="#151832">AASHMA YADAV</text>
  <text x="600" y="160" text-anchor="middle" font-family="'Courier New', monospace" font-weight="700" font-size="72" letter-spacing="10" fill="url(#cyan-mag-l)" opacity="0.45">AASHMA YADAV</text>

  <text x="600" y="205" text-anchor="middle" font-family="'Courier New', monospace" font-size="17" letter-spacing="1.5" fill="#4A5578">B.Tech CSE @ IIT Jodhpur  ::  ARM64 &amp; OS Internals  ::  Applied ML</text>

  <line x1="260" y1="234" x2="940" y2="234" stroke="url(#cyan-mag-l)" stroke-width="2" opacity="0.7"/>
  <circle cx="260" cy="234" r="3.5" fill="#0090A8"/>
  <circle cx="940" cy="234" r="3.5" fill="#C400A8"/>
</svg>
